<?xml version="1.0" standalone="no"?>
<!DOCTYPE svg PUBLIC "-//W3C//DTD SVG 20010904//EN"
 "http://www.w3.org/TR/2001/REC-SVG-20010904/DTD/svg10.dtd">
<svg version="1.0" xmlns="http://www.w3.org/2000/svg"
 width="408.000000pt" height="160.000000pt" viewBox="0 0 408.000000 160.000000"
 preserveAspectRatio="xMidYMid meet">

<g transform="translate(0.000000,160.000000) scale(0.100000,-0.100000)"
fill="#000000" stroke="none">
<path d="M2031 1375 l-52 -55 -80 0 -79 0 0 -79 0 -79 -57 -56 -58 -55 58 -58
57 -59 0 -82 0 -83 81 2 80 2 58 -57 57 -57 55 58 54 57 84 -3 84 -3 -5 82 -5
82 59 56 59 56 -58 58 -58 59 4 79 3 80 -84 0 -84 0 -54 55 c-30 30 -57 55
-61 55 -3 0 -30 -25 -58 -55z m111 -12 l47 -46 -39 -28 c-21 -15 -41 -37 -45
-48 -5 -17 -11 -14 -56 31 l-51 51 43 43 c24 24 45 44 48 44 3 0 27 -21 53
-47z m-177 -120 l0 -68 -67 0 -68 0 0 61 c0 33 3 64 7 67 3 4 34 7 67 7 l61 0
0 -67z m385 0 l0 -68 -67 0 -68 0 2 65 c1 36 2 66 2 68 1 1 30 2 66 2 l65 0 0
-67z m-300 12 c21 -22 25 -38 28 -101 3 -45 0 -74 -6 -74 -15 0 -73 69 -88
106 -17 40 -17 54 -4 89 11 30 28 25 70 -20z m160 -18 c0 -48 -18 -82 -69
-132 l-41 -39 0 62 c0 78 19 126 62 151 38 24 48 16 48 -42z m-262 -77 c15 0
112 -88 112 -101 0 -17 -103 -9 -145 11 -44 21 -86 77 -63 84 7 3 20 7 28 10
8 3 24 3 35 1 11 -3 26 -5 33 -5z m392 -6 c12 -13 -30 -61 -70 -81 -45 -23
-150 -33 -150 -14 0 15 99 99 123 104 23 5 89 -1 97 -9z m-471 -64 c44 -44 47
-50 30 -55 -11 -4 -33 -24 -48 -45 l-28 -39 -49 50 -48 49 44 45 c24 25 45 45
47 45 1 0 24 -22 52 -50z m544 2 l47 -48 -50 -49 c-27 -27 -51 -47 -53 -44 -2
2 -11 17 -21 32 -9 15 -31 36 -47 46 l-30 18 36 21 c19 12 40 33 47 47 6 14
14 25 17 25 4 0 28 -22 54 -48z m-378 -93 c-52 -53 -84 -69 -139 -69 -55 0
-63 11 -37 49 30 42 76 61 151 61 l64 0 -39 -41z m234 23 c40 -20 77 -65 67
-81 -11 -17 -98 -13 -126 6 -34 22 -90 75 -90 85 0 16 114 8 149 -10z m-200
-154 c-12 -31 -53 -68 -74 -68 -7 0 -16 12 -19 26 -12 46 5 93 53 146 l46 52
3 -64 c2 -35 -2 -76 -9 -92z m127 50 c16 -31 18 -86 4 -108 -8 -13 -13 -13
-37 2 -43 26 -63 73 -63 147 l0 65 41 -39 c22 -22 47 -52 55 -67z m-262 -1
l31 10 0 -69 0 -68 -67 0 -68 0 0 63 c0 35 3 66 6 70 3 3 19 1 36 -5 20 -7 41
-7 62 -1z m416 -57 l0 -70 -67 0 -68 0 0 65 0 65 40 -5 c22 -4 51 -2 65 4 14
5 26 10 28 10 1 1 2 -30 2 -69z m-240 -16 c8 -14 27 -33 42 -42 15 -9 28 -21
28 -27 0 -6 -19 -30 -43 -53 l-43 -42 -49 50 c-27 27 -47 51 -44 53 2 2 17 11
32 21 15 9 33 28 39 42 14 31 21 30 38 -2z"/>
<path d="M130 360 l0 -140 85 0 c69 0 85 3 85 15 0 12 -14 15 -70 15 l-70 0 0
50 0 50 60 0 c77 0 79 18 3 22 l-58 3 -3 48 -3 47 70 0 c56 0 71 3 71 15 0 12
-16 15 -85 15 l-85 0 0 -140z"/>
<path d="M410 360 l0 -140 85 0 c69 0 85 3 85 15 0 12 -14 15 -70 15 l-70 0 0
125 c0 104 -2 125 -15 125 -13 0 -15 -22 -15 -140z"/>
<path d="M680 360 l0 -140 85 0 c69 0 85 3 85 15 0 12 -14 15 -70 15 l-70 0 0
50 0 50 60 0 c77 0 79 18 3 22 l-58 3 -3 48 -3 47 70 0 c56 0 71 3 71 15 0 12
-16 15 -85 15 l-85 0 0 -140z"/>
<path d="M1032 482 c-69 -37 -94 -131 -53 -198 31 -51 106 -77 163 -55 21 8
23 14 20 60 -4 49 -5 51 -33 51 -19 0 -29 -5 -29 -15 0 -8 9 -15 21 -15 31 0
23 -54 -10 -58 -69 -10 -121 36 -121 108 0 43 4 52 36 80 32 27 43 31 82 28
48 -3 70 15 30 26 -38 10 -71 6 -106 -12z"/>
<path d="M1330 368 c-30 -73 -56 -135 -58 -140 -2 -4 3 -8 11 -8 8 0 24 23 37
55 l22 55 47 0 47 0 23 -55 c13 -30 29 -55 37 -55 12 0 12 5 1 33 -75 176
-100 233 -105 239 -4 4 -32 -52 -62 -124z m73 45 c2 -10 8 -26 12 -35 6 -15 2
-18 -25 -18 -27 0 -31 3 -25 18 4 9 10 25 12 35 3 9 9 17 13 17 4 0 10 -8 13
-17z"/>
<path d="M1618 360 c4 -163 22 -193 22 -35 0 58 2 105 4 105 4 0 103 -103 169
-175 l36 -40 1 143 c0 111 -3 143 -12 139 -9 -3 -13 -33 -13 -105 0 -56 -3
-102 -6 -102 -3 0 -48 47 -100 104 -52 58 -96 105 -99 105 -3 1 -4 -62 -2
-139z"/>
<path d="M1940 485 c0 -11 12 -15 45 -15 l45 0 0 -125 c0 -104 2 -125 15 -125
13 0 15 21 15 125 l0 125 45 0 c33 0 45 4 45 15 0 12 -18 15 -105 15 -87 0
-105 -3 -105 -15z"/>
<path d="M2420 485 c0 -11 12 -15 45 -15 l44 0 3 -122 c2 -86 7 -123 16 -126
9 -3 12 26 12 122 l0 126 45 0 c33 0 45 4 45 15 0 12 -18 15 -105 15 -87 0
-105 -3 -105 -15z"/>
<path d="M2700 361 c0 -119 2 -141 15 -141 12 0 15 14 15 66 0 57 2 65 18 62
10 -2 29 -29 47 -65 16 -35 35 -63 43 -63 16 0 10 25 -20 83 l-19 38 25 20
c20 16 26 30 26 59 0 49 -29 71 -101 78 l-49 5 0 -142z m110 89 c11 -11 20
-24 20 -28 0 -21 -29 -43 -63 -49 l-37 -6 0 52 c0 50 1 51 30 51 17 0 39 -9
50 -20z"/>
<path d="M3006 365 c-61 -148 -61 -145 -45 -145 5 0 21 25 34 55 l25 55 45 0
46 0 24 -55 c14 -30 29 -55 35 -55 5 0 10 4 10 8 0 9 -107 262 -113 268 -2 3
-30 -56 -61 -131z m82 23 c11 -27 10 -28 -18 -28 -33 0 -36 7 -18 45 12 28 18
25 36 -17z"/>
<path d="M3230 498 c0 -15 119 -278 123 -272 4 8 48 109 104 242 11 27 11 32
-1 32 -9 0 -31 -41 -58 -105 -23 -57 -45 -105 -48 -105 -3 0 -25 47 -49 105
-26 62 -49 105 -57 105 -8 0 -14 -1 -14 -2z"/>
<path d="M3560 360 l0 -140 85 0 c69 0 85 3 85 15 0 12 -14 15 -70 15 l-70 0
0 50 0 50 60 0 c33 0 60 4 60 10 0 6 -27 10 -60 10 l-60 0 0 50 0 50 65 0 c51
0 65 3 65 15 0 12 -16 15 -80 15 l-80 0 0 -140z"/>
<path d="M3840 360 l0 -141 82 3 c52 2 83 7 85 15 3 9 -17 13 -69 15 l-73 3
-3 123 c-4 172 -22 157 -22 -18z"/>
</g>
</svg>
